<svg width="50" height="50" viewBox="0 0 50 50" fill="none" xmlns="http://www.w3.org/2000/svg">
<path d="M25 50C38.8071 50 50 38.8071 50 25C50 11.1929 38.8071 0 25 0C11.1929 0 0 11.1929 0 25C0 38.8071 11.1929 50 25 50Z" fill="#F3EEE4"/>
<path opacity="0.7" d="M23.699 32.393L23.6786 26.0961H21V23.3974H23.6786V21.5983C23.6786 19.1702 25.171 18 27.3209 18C28.3507 18 29.2358 18.0772 29.4937 18.1118V20.6493L28.0026 20.65C26.8334 20.65 26.607 21.2097 26.607 22.0312V23.3974H29.9286L29.0357 26.0961H26.607V32.393H23.699Z" fill="#121212"/>
</svg>
