<svg width="24" height="22" viewBox="0 0 24 22" fill="none" xmlns="http://www.w3.org/2000/svg">
<path fill-rule="evenodd" clip-rule="evenodd" d="M13.9355 21.0302V17.08C13.9355 16.5442 14.3643 16.1101 14.8933 16.1101C16.7808 16.1101 17.8074 14.1497 17.9497 10.2803L14.8933 10.2803C14.3643 10.2803 13.9355 9.84586 13.9355 9.31032V0.96962C13.9355 0.434153 14.3643 0 14.8933 0H23.0424C23.5716 0 24 0.434492 24 0.96962L24 9.31032C24 11.1652 23.8156 12.8674 23.452 14.3701C23.0792 15.9109 22.5069 17.2581 21.7514 18.3744C20.9741 19.5216 20.0018 20.4219 18.8613 21.049C17.7131 21.68 16.3778 22 14.893 22C14.3643 22 13.9355 21.5659 13.9355 21.0302ZM0.957905 16.1101C0.429165 16.1101 0 16.5446 0 17.08V21.0302C0 21.5659 0.429098 22 0.957905 22C2.44213 22 3.77757 21.6799 4.92538 21.049C6.0661 20.4219 7.03893 19.5216 7.81637 18.3744C8.57151 17.2581 9.14384 15.9108 9.51676 14.3697C9.8801 12.8665 10.0645 11.1643 10.0645 9.31032V0.96962C10.0645 0.434153 9.63555 0 9.10668 0H0.95797C0.429232 0 0.000469208 0.434492 0.000469208 0.96962L0.000469208 9.31039C0.000469208 9.84586 0.429165 10.2804 0.95797 10.2804L3.97076 10.2804C3.83061 14.1497 2.81894 16.1101 0.957905 16.1101Z" fill="#DA3743"/>
</svg>
