<svg width="50" height="50" viewBox="0 0 50 50" fill="none" xmlns="http://www.w3.org/2000/svg">
<path d="M25 50C38.8071 50 50 38.8071 50 25C50 11.1929 38.8071 0 25 0C11.1929 0 0 11.1929 0 25C0 38.8071 11.1929 50 25 50Z" fill="#666666" fill-opacity="0.08"/>
<g clip-path="url(#clip0_2_2022)">
<path d="M33.942 21.3128C33.9319 20.557 33.7902 19.8087 33.5232 19.1015C33.2917 18.5049 32.938 17.9631 32.4848 17.5106C32.0317 17.0582 31.489 16.7052 30.8914 16.474C30.192 16.2119 29.4532 16.0702 28.7064 16.0549C27.7448 16.012 27.4399 16 24.999 16C22.5581 16 22.2452 16 21.2906 16.0549C20.5441 16.0703 19.8057 16.212 19.1066 16.474C18.5089 16.705 17.9661 17.058 17.513 17.5104C17.0598 17.9629 16.7062 18.5048 16.4748 19.1015C16.2117 19.7991 16.0701 20.5365 16.056 21.2818C16.013 22.2428 16 22.5472 16 24.984C16 27.4209 16 27.7322 16.056 28.6862C16.071 29.4326 16.2119 30.1691 16.4748 30.8686C16.7066 31.4651 17.0604 32.0068 17.5138 32.459C17.9671 32.9113 18.5099 33.2641 19.1076 33.4951C19.8047 33.7677 20.5434 33.9196 21.2916 33.9441C22.2542 33.987 22.5591 34 25 34C27.4409 34 27.7538 34 28.7084 33.9441C29.4552 33.9294 30.1941 33.788 30.8934 33.526C31.4908 33.2946 32.0334 32.9414 32.4865 32.489C32.9396 32.0367 33.2934 31.495 33.5252 30.8985C33.7881 30.2 33.929 29.4636 33.944 28.7162C33.987 27.7562 34 27.4518 34 25.014C33.998 22.5771 33.998 22.2678 33.942 21.3128ZM24.993 29.5923C22.4401 29.5923 20.3721 27.5277 20.3721 24.979C20.3721 22.4304 22.4401 20.3658 24.993 20.3658C26.2186 20.3658 27.3939 20.8518 28.2605 21.717C29.1271 22.5821 29.614 23.7555 29.614 24.979C29.614 26.2026 29.1271 27.376 28.2605 28.2411C27.3939 29.1063 26.2186 29.5923 24.993 29.5923ZM29.7979 21.2709C29.6563 21.271 29.5162 21.2433 29.3854 21.1893C29.2546 21.1352 29.1357 21.056 29.0357 20.9561C28.9356 20.8562 28.8562 20.7375 28.8021 20.607C28.748 20.4764 28.7202 20.3364 28.7203 20.1951C28.7203 20.0539 28.7482 19.9141 28.8023 19.7837C28.8565 19.6532 28.9358 19.5347 29.0358 19.4348C29.1358 19.335 29.2545 19.2558 29.3852 19.2018C29.5159 19.1477 29.6559 19.1199 29.7974 19.1199C29.9388 19.1199 30.0789 19.1477 30.2095 19.2018C30.3402 19.2558 30.4589 19.335 30.5589 19.4348C30.6589 19.5347 30.7383 19.6532 30.7924 19.7837C30.8465 19.9141 30.8744 20.0539 30.8744 20.1951C30.8744 20.7899 30.3926 21.2709 29.7979 21.2709Z" fill="#565451"/>
<path d="M24.9954 27.2364C26.2393 27.2364 27.2477 26.2281 27.2477 24.9842C27.2477 23.7403 26.2393 22.7319 24.9954 22.7319C23.7516 22.7319 22.7432 23.7403 22.7432 24.9842C22.7432 26.2281 23.7516 27.2364 24.9954 27.2364Z" fill="#565451"/>
</g>
<defs>
<clipPath id="clip0_2_2022">
<rect width="18" height="18" fill="white" transform="translate(16 16)"/>
</clipPath>
</defs>
</svg>
