<svg width="166" height="38" viewBox="0 0 166 38" fill="none" xmlns="http://www.w3.org/2000/svg">
<g clip-path="url(#clip0_2_1988)">
<path d="M46.6327 24.1045C46.2732 23.6666 46.0565 23.1299 46.0117 22.5662C45.9668 22.0024 46.0959 21.4384 46.3817 20.9497C46.777 20.3031 47.1911 19.6721 47.6366 19.0505C48.8068 17.3888 50.9087 17.039 52.1259 18.1385C53.3431 19.238 53.4404 21.1183 52.5086 22.4521C52.1489 22.9665 51.8049 23.4923 51.4765 24.0295C50.8773 25.0166 49.6883 25.2321 48.8099 25.1946C48.6002 25.1934 48.3951 25.2558 48.2219 25.3736C48.0488 25.4913 47.9157 25.6588 47.8405 25.8537C47.7495 26.0754 47.6617 26.3003 47.577 26.5252L56.8568 26.4971C56.8568 26.3753 56.8568 26.2504 56.8568 26.1254C56.7143 19.9872 54.148 14.1522 49.714 9.88514C45.28 5.61808 39.3357 3.26278 33.1695 3.32976C27.0032 3.39674 21.1119 5.88061 16.7725 10.243C12.4331 14.6054 9.99522 20.4947 9.9873 26.6346L27.3767 26.5846C27.4583 26.3066 27.5461 26.038 27.6339 25.7662C28.3527 23.5827 29.2346 21.4559 30.2723 19.4035C30.586 18.7788 30.6582 18.0635 30.426 17.62C29.9805 16.7703 29.7296 15.2336 30.7397 13.5874C32.0443 11.4477 33.5127 9.41135 35.1318 7.49648C35.2464 7.35798 35.3942 7.25054 35.5616 7.18413C35.625 7.15423 35.6959 7.14391 35.7652 7.15448C35.8346 7.16506 35.8991 7.19605 35.9506 7.24347C36.1043 7.41215 36.0071 7.7776 35.7624 8.0681C34.5373 9.5137 33.4006 11.0314 32.3585 12.6129C32.2595 12.7562 32.201 12.9235 32.1891 13.097C32.1823 13.1554 32.1902 13.2145 32.2121 13.2691C32.234 13.3236 32.2692 13.3718 32.3146 13.4094C32.5091 13.5624 32.8699 13.3719 33.0895 13.0346C34.1127 11.4828 35.2295 9.99434 36.4337 8.57724C36.5428 8.44409 36.6858 8.34266 36.8478 8.28362C36.9037 8.25913 36.9647 8.24887 37.0255 8.25378C37.0863 8.25869 37.1449 8.27861 37.1961 8.31173C37.3937 8.45542 37.3153 8.85211 37.0612 9.15197C35.8805 10.543 34.7847 12.0033 33.7797 13.525C33.6846 13.6649 33.6293 13.8279 33.6197 13.9966C33.6156 14.0569 33.6271 14.1171 33.6529 14.1718C33.6786 14.2264 33.718 14.2736 33.7671 14.309C33.8217 14.3396 33.8833 14.3557 33.9459 14.3557C34.0086 14.3557 34.0702 14.3396 34.1248 14.309C34.2717 14.2388 34.3973 14.131 34.4887 13.9966C35.4738 12.499 36.5498 11.0627 37.7106 9.69547C37.9615 9.38312 38.338 9.27379 38.5105 9.44871C38.547 9.4912 38.5734 9.54141 38.5875 9.59553C38.6016 9.64964 38.6032 9.70625 38.5921 9.76107C38.5649 9.92306 38.4933 10.0744 38.3851 10.1984C37.2467 11.5383 36.1907 12.9454 35.2228 14.4121C35.0126 14.7244 35.0032 15.118 35.2228 15.2304C35.2752 15.2573 35.3333 15.2713 35.3922 15.2713C35.4511 15.2713 35.5092 15.2573 35.5616 15.2304C35.7064 15.1621 35.8284 15.0536 35.913 14.9181C36.8623 13.4774 37.8984 12.0952 39.0156 10.7793C39.2384 10.5138 39.5709 10.3889 39.756 10.5201C39.8089 10.5614 39.849 10.6167 39.8718 10.6797C39.8945 10.7427 39.899 10.8108 39.8846 10.8762C39.8595 11.0333 39.7911 11.1803 39.687 11.301C38.262 12.9793 36.9698 14.7651 35.822 16.6423C35.4949 17.2034 35.0449 17.6838 34.5056 18.0477C33.9662 18.4117 33.3514 18.6498 32.7068 18.7444C32.2174 18.8038 31.6997 19.2692 31.4268 19.9095C30.5617 21.9595 29.8507 24.0706 29.2998 26.2254C29.2715 26.3378 29.2433 26.444 29.2182 26.5565L37.4627 26.5315C37.562 26.1995 37.5908 25.8506 37.5474 25.507C37.3634 24.8989 37.1919 24.2742 37.0329 23.6328C36.9778 22.853 37.1315 22.0726 37.4784 21.3714C38.1658 19.9356 38.939 18.5421 39.7936 17.1983C40.3296 16.3418 41.0549 15.6185 41.9144 15.0836C42.7081 14.6026 43.5049 14.1466 44.3143 13.7436C44.4534 13.6555 44.6161 13.6116 44.7809 13.6177C44.9456 13.6239 45.1046 13.6798 45.2367 13.778C45.5786 14.0903 45.5504 14.6744 45.1739 15.143C42.481 18.5486 40.4084 22.3978 39.0501 26.5159L46.1057 26.494C46.3002 26.0879 46.5009 25.6881 46.708 25.2914C46.8047 25.1054 46.8487 24.8966 46.8355 24.6876C46.8222 24.4785 46.7521 24.277 46.6327 24.1045Z" fill="url(#paint0_linear_2_1988)"/>
<path d="M6.88467 28.2434C6.88716 28.6659 7.05748 29.0703 7.35844 29.3682C7.6594 29.6661 8.06653 29.8333 8.49091 29.8333L26.5171 29.7802C26.7618 28.7036 27.0484 27.6395 27.3767 26.5879L8.4815 26.641C8.27086 26.6414 8.06237 26.6832 7.868 26.764C7.67363 26.8449 7.4972 26.9631 7.34884 27.112C7.20048 27.2609 7.08311 27.4375 7.00345 27.6316C6.9238 27.8258 6.88343 28.0337 6.88467 28.2434Z" fill="url(#paint1_linear_2_1988)"/>
<path d="M28.5311 29.7742L36.3929 29.7523C36.556 29.1776 36.7286 28.6059 36.9168 28.0437C37.0643 27.5939 37.2305 27.1472 37.3905 26.7068C37.4091 26.6578 37.4248 26.6077 37.4376 26.5569L29.1931 26.5819C28.939 27.6345 28.7194 28.7028 28.5311 29.7742Z" fill="url(#paint2_linear_2_1988)"/>
<path d="M38.4478 28.484C38.3348 28.9025 38.2281 29.3242 38.134 29.7334L44.7723 29.7147C45.1577 28.631 45.6007 27.5686 46.0993 26.5317L39.0438 26.5536C38.8148 27.1908 38.6234 27.8374 38.4478 28.484Z" fill="url(#paint3_linear_2_1988)"/>
<path d="M60.4206 26.9533C60.2719 26.8013 60.0937 26.6812 59.8968 26.6001C59.7 26.519 59.4886 26.4787 59.2755 26.4816L47.5582 26.516C47.155 27.5599 46.8114 28.6257 46.5292 29.7082L59.2849 29.6708C59.6022 29.6697 59.912 29.575 60.1752 29.3986C60.4383 29.2221 60.643 28.9719 60.7632 28.6796C60.8835 28.3873 60.9139 28.0661 60.8507 27.7565C60.7875 27.447 60.6334 27.1631 60.4081 26.9408L60.4206 26.9533Z" fill="url(#paint4_linear_2_1988)"/>
<path style="mix-blend-mode:multiply" d="M52.5024 22.4523C53.4436 21.1186 53.34 19.2382 52.1197 18.1387C50.8993 17.0392 48.8005 17.389 47.6304 19.0508C47.1912 19.6755 46.7771 20.3002 46.3755 20.9499C46.0897 21.4387 45.9606 22.0026 46.0054 22.5664C46.0503 23.1302 46.267 23.6669 46.6265 24.1047C46.7496 24.2827 46.8202 24.4914 46.8302 24.7073C46.8402 24.9232 46.7892 25.1376 46.6829 25.326C46.4759 25.7227 46.2751 26.1225 46.0806 26.5286L39.0251 26.5505C40.3862 22.4317 42.462 18.5825 45.1583 15.1776C45.5285 14.709 45.563 14.1124 45.221 13.8126C45.0889 13.7144 44.93 13.6585 44.7652 13.6523C44.6005 13.6462 44.4378 13.6901 44.2987 13.7782C43.4893 14.1905 42.6924 14.6372 41.8987 15.1182C41.0393 15.6531 40.3139 16.3764 39.778 17.2329C38.9233 18.5767 38.1502 19.9702 37.4628 21.406C37.1099 22.1067 36.9508 22.8883 37.0016 23.6705C37.1585 24.2953 37.33 24.92 37.5161 25.5447C37.5595 25.8883 37.5306 26.2372 37.4314 26.5692L29.1869 26.5942C29.7451 24.3263 30.4793 22.105 31.3829 19.9504C31.6558 19.3257 32.1735 18.8446 32.6629 18.7853C33.3075 18.6907 33.9223 18.4525 34.4617 18.0886C35.0011 17.7246 35.451 17.2442 35.7781 16.6831C36.9259 14.8059 38.2181 13.0202 39.6431 11.3418C39.7472 11.2212 39.8156 11.0741 39.8407 10.917C39.8551 10.8516 39.8506 10.7835 39.8279 10.7206C39.8051 10.6576 39.765 10.6023 39.7121 10.5609C39.527 10.4297 39.1945 10.5609 38.9717 10.8202C37.8545 12.1361 36.8184 13.5182 35.8691 14.9589C35.7845 15.0945 35.6625 15.2029 35.5177 15.2713C35.4653 15.2981 35.4072 15.3121 35.3483 15.3121C35.2894 15.3121 35.2313 15.2981 35.1789 15.2713C34.9624 15.1588 34.9718 14.7715 35.1789 14.4529C36.1559 12.9855 37.2214 11.5783 38.3694 10.2392C38.4776 10.1153 38.5493 9.9639 38.5765 9.80191C38.5876 9.7471 38.586 9.69049 38.5718 9.63637C38.5577 9.58225 38.5314 9.53205 38.4949 9.48955C38.3224 9.31463 37.9459 9.43958 37.6949 9.73632C36.5342 11.1035 35.4582 12.5399 34.473 14.0375C34.3817 14.1719 34.2561 14.2797 34.1091 14.3498C34.0546 14.3805 33.993 14.3966 33.9303 14.3966C33.8677 14.3966 33.8061 14.3805 33.7515 14.3498C33.7023 14.3145 33.663 14.2673 33.6372 14.2126C33.6114 14.158 33.6 14.0977 33.604 14.0375C33.6137 13.8688 33.669 13.7058 33.764 13.5658C34.7691 12.0441 35.8649 10.5838 37.0455 9.19282C37.2996 8.88046 37.3781 8.49626 37.1804 8.35258C37.1293 8.31945 37.0707 8.29953 37.0099 8.29462C36.9491 8.28972 36.888 8.29997 36.8322 8.32447C36.6702 8.38351 36.5271 8.48493 36.4181 8.61808C35.2147 10.0271 34.0979 11.5073 33.0739 13.0504C32.8542 13.3878 32.4935 13.5783 32.299 13.4252C32.2536 13.3877 32.2184 13.3395 32.1964 13.2849C32.1745 13.2304 32.1666 13.1712 32.1735 13.1129C32.1854 12.9393 32.2439 12.7721 32.3429 12.6287C33.3845 11.0429 34.5212 9.52109 35.7467 8.07146C35.9914 7.78096 36.0887 7.41551 35.935 7.24683C35.8835 7.19941 35.8189 7.16842 35.7496 7.15784C35.6803 7.14727 35.6093 7.15759 35.546 7.18749C35.3786 7.2539 35.2307 7.36135 35.1162 7.49984C33.497 9.41471 32.0287 11.4511 30.7241 13.5908C29.7233 15.2369 29.9743 16.7737 30.4104 17.6233C30.6425 18.0669 30.5767 18.7697 30.2567 19.4069C29.219 21.4593 28.3371 23.5861 27.6183 25.7696C27.5305 26.0413 27.4426 26.3099 27.361 26.5879C26.8208 26.5929 26.2859 26.482 25.7926 26.2628C25.2992 26.0436 24.859 25.7213 24.5019 25.3177C24.1448 24.9141 23.8791 24.4387 23.7228 23.9239C23.5666 23.409 23.5235 22.8666 23.5964 22.3337C24.9988 12.2008 31.4394 4.45124 39.2823 3.97021C44.2393 5.24651 48.6403 8.10364 51.8128 12.105C54.9852 16.1063 56.7546 21.0318 56.8505 26.1288C56.8505 26.2537 56.8505 26.3787 56.8505 26.5005L47.5708 26.5286C47.6555 26.3037 47.7433 26.0788 47.8343 25.857C47.9095 25.6621 48.0425 25.4947 48.2157 25.3769C48.3889 25.2592 48.594 25.1968 48.8037 25.198C49.6821 25.2354 50.8711 25.0199 51.4703 24.0329C51.7965 23.4935 52.1406 22.9667 52.5024 22.4523Z" fill="url(#paint5_linear_2_1988)"/>
<path d="M33.8017 0C33.2193 0 32.6607 0.230362 32.2489 0.640409C31.837 1.05046 31.6057 1.6066 31.6057 2.1865V4.37299H35.9977V2.1865C35.9977 1.6066 35.7663 1.05046 35.3545 0.640409C34.9427 0.230362 34.3841 0 33.8017 0Z" fill="url(#paint6_linear_2_1988)"/>
<path d="M70.4117 9.88811H75.2343L79.3252 19.8636H79.514L83.6049 9.88811H88.4275V26H84.6355V16.1031H84.5018L80.6311 25.8977H78.2081L74.3374 16.0481H74.2037V26H70.4117V9.88811ZM96.5937 26.2281C95.3297 26.2281 94.2388 25.979 93.3209 25.4808C92.4083 24.9773 91.7055 24.2614 91.2125 23.333C90.7248 22.3995 90.4809 21.2902 90.4809 20.0052C90.4809 18.757 90.7274 17.6661 91.2204 16.7325C91.7134 15.7937 92.4083 15.0647 93.3052 14.5455C94.202 14.021 95.2589 13.7587 96.4756 13.7587C97.3358 13.7587 98.1225 13.8925 98.8358 14.16C99.5491 14.4274 100.165 14.8234 100.685 15.3479C101.204 15.8724 101.608 16.5201 101.896 17.2911C102.185 18.0568 102.329 18.9353 102.329 19.9266V20.8864H91.8262V18.6521H98.7493C98.744 18.243 98.647 17.8785 98.4582 17.5586C98.2694 17.2386 98.0097 16.9895 97.6793 16.8112C97.3541 16.6276 96.9791 16.5358 96.5543 16.5358C96.1243 16.5358 95.7388 16.6329 95.3979 16.8269C95.0569 17.0157 94.7868 17.2753 94.5875 17.6058C94.3882 17.9309 94.2833 18.3007 94.2729 18.715V20.9886C94.2729 21.4816 94.3699 21.9143 94.5639 22.2867C94.758 22.6538 95.0333 22.9397 95.39 23.1442C95.7466 23.3488 96.1715 23.451 96.6645 23.451C97.0054 23.451 97.3148 23.4038 97.5928 23.3094C97.8708 23.215 98.1094 23.076 98.3087 22.8925C98.508 22.7089 98.6575 22.4834 98.7571 22.2159L102.289 22.3182C102.143 23.1101 101.82 23.7998 101.322 24.3872C100.829 24.9694 100.181 25.4231 99.3786 25.7483C98.5762 26.0682 97.6479 26.2281 96.5937 26.2281ZM107.789 26.2045C107.018 26.2045 106.333 26.076 105.735 25.8191C105.143 25.5568 104.673 25.1635 104.327 24.639C103.986 24.1093 103.816 23.4458 103.816 22.6486C103.816 21.9773 103.934 21.4108 104.17 20.9493C104.406 20.4878 104.731 20.1128 105.145 19.8243C105.56 19.5358 106.037 19.3182 106.577 19.1713C107.117 19.0192 107.694 18.917 108.308 18.8645C108.995 18.8016 109.548 18.736 109.968 18.6678C110.387 18.5944 110.692 18.4921 110.88 18.361C111.075 18.2246 111.172 18.0332 111.172 17.7867V17.7474C111.172 17.3435 111.033 17.0315 110.755 16.8112C110.477 16.5909 110.102 16.4808 109.63 16.4808C109.121 16.4808 108.712 16.5909 108.402 16.8112C108.093 17.0315 107.896 17.3357 107.812 17.7238L104.264 17.5979C104.369 16.8636 104.639 16.208 105.075 15.6311C105.515 15.049 106.118 14.5927 106.884 14.2622C107.655 13.9266 108.581 13.7587 109.661 13.7587C110.432 13.7587 111.143 13.8505 111.793 14.0341C112.443 14.2124 113.01 14.4746 113.492 14.8208C113.975 15.1617 114.347 15.5813 114.61 16.0795C114.877 16.5778 115.011 17.1469 115.011 17.7867V26H111.392V24.3164H111.297C111.082 24.7255 110.807 25.0717 110.471 25.3549C110.141 25.6381 109.75 25.8505 109.299 25.9921C108.853 26.1337 108.35 26.2045 107.789 26.2045ZM108.977 23.6871C109.391 23.6871 109.763 23.6031 110.094 23.4353C110.429 23.2675 110.697 23.0367 110.896 22.743C111.096 22.4441 111.195 22.0979 111.195 21.7045V20.5559C111.085 20.6136 110.951 20.6661 110.794 20.7133C110.642 20.7605 110.474 20.8051 110.29 20.847C110.107 20.889 109.918 20.9257 109.724 20.9572C109.53 20.9886 109.344 21.0175 109.165 21.0437C108.804 21.1014 108.494 21.1906 108.237 21.3112C107.985 21.4318 107.791 21.5892 107.655 21.7832C107.524 21.972 107.458 22.1976 107.458 22.4598C107.458 22.8584 107.6 23.1626 107.883 23.3724C108.172 23.5822 108.536 23.6871 108.977 23.6871ZM121.299 9.88811V26H117.452V9.88811H121.299ZM134.386 17.6058L130.853 17.7002C130.817 17.4484 130.717 17.2255 130.554 17.0315C130.392 16.8322 130.179 16.6774 129.917 16.5673C129.66 16.4519 129.361 16.3942 129.02 16.3942C128.575 16.3942 128.194 16.4834 127.88 16.6617C127.57 16.84 127.418 17.0813 127.423 17.3855C127.418 17.6215 127.512 17.826 127.707 17.9991C127.906 18.1722 128.26 18.3112 128.769 18.4161L131.097 18.8566C132.304 19.0874 133.2 19.4703 133.788 20.0052C134.38 20.5402 134.679 21.2483 134.685 22.1294C134.679 22.958 134.433 23.6792 133.945 24.2928C133.463 24.9065 132.802 25.3837 131.963 25.7247C131.123 26.0603 130.164 26.2281 129.083 26.2281C127.358 26.2281 125.997 25.8741 125 25.1661C124.009 24.4528 123.443 23.4983 123.301 22.3024L127.101 22.208C127.185 22.6486 127.402 22.9843 127.754 23.215C128.105 23.4458 128.554 23.5612 129.099 23.5612C129.592 23.5612 129.993 23.4694 130.303 23.2858C130.612 23.1023 130.769 22.8584 130.775 22.5542C130.769 22.2815 130.649 22.0638 130.413 21.9012C130.177 21.7334 129.807 21.6023 129.304 21.5079L127.195 21.1066C125.984 20.8864 125.082 20.4799 124.489 19.8872C123.896 19.2893 123.603 18.5288 123.608 17.6058C123.603 16.7981 123.818 16.1084 124.253 15.5367C124.688 14.9598 125.307 14.5192 126.11 14.215C126.912 13.9108 127.859 13.7587 128.95 13.7587C130.586 13.7587 131.876 14.1023 132.82 14.7893C133.764 15.4712 134.286 16.41 134.386 17.6058Z" fill="#1A1A1A"/>
</g>
<defs>
<linearGradient id="paint0_linear_2_1988" x1="48.3643" y1="36.5438" x2="14.7204" y2="2.95315" gradientUnits="userSpaceOnUse">
<stop stop-color="#FFAB17"/>
<stop offset="0.28" stop-color="#FF8121"/>
<stop offset="0.6" stop-color="#FF572B"/>
<stop offset="0.85" stop-color="#FF3D31"/>
<stop offset="1" stop-color="#FF3333"/>
</linearGradient>
<linearGradient id="paint1_linear_2_1988" x1="37.2573" y1="47.6717" x2="3.61027" y2="14.0811" gradientUnits="userSpaceOnUse">
<stop stop-color="#FFAB17"/>
<stop offset="0.28" stop-color="#FF8121"/>
<stop offset="0.6" stop-color="#FF572B"/>
<stop offset="0.85" stop-color="#FF3D31"/>
<stop offset="1" stop-color="#FF3333"/>
</linearGradient>
<linearGradient id="paint2_linear_2_1988" x1="44.933" y1="39.984" x2="11.2891" y2="6.39023" gradientUnits="userSpaceOnUse">
<stop stop-color="#FFAB17"/>
<stop offset="0.28" stop-color="#FF8121"/>
<stop offset="0.6" stop-color="#FF572B"/>
<stop offset="0.85" stop-color="#FF3D31"/>
<stop offset="1" stop-color="#FF3333"/>
</linearGradient>
<linearGradient id="paint3_linear_2_1988" x1="49.4809" y1="35.4287" x2="15.8339" y2="1.8381" gradientUnits="userSpaceOnUse">
<stop stop-color="#FFAB17"/>
<stop offset="0.28" stop-color="#FF8121"/>
<stop offset="0.6" stop-color="#FF572B"/>
<stop offset="0.85" stop-color="#FF3D31"/>
<stop offset="1" stop-color="#FF3333"/>
</linearGradient>
<linearGradient id="paint4_linear_2_1988" x1="55.0329" y1="29.8678" x2="21.389" y2="-3.72595" gradientUnits="userSpaceOnUse">
<stop stop-color="#FFAB17"/>
<stop offset="0.28" stop-color="#FF8121"/>
<stop offset="0.6" stop-color="#FF572B"/>
<stop offset="0.85" stop-color="#FF3D31"/>
<stop offset="1" stop-color="#FF3333"/>
</linearGradient>
<linearGradient id="paint5_linear_2_1988" x1="40.1982" y1="19.6945" x2="16.3164" y2="2.26193" gradientUnits="userSpaceOnUse">
<stop stop-color="white"/>
<stop offset="0.13" stop-color="#F3BCBC"/>
<stop offset="0.27" stop-color="#E98181"/>
<stop offset="0.38" stop-color="#E15757"/>
<stop offset="0.47" stop-color="#DD3D3D"/>
<stop offset="0.52" stop-color="#DB3333"/>
</linearGradient>
<linearGradient id="paint6_linear_2_1988" x1="58.0669" y1="26.8289" x2="24.4199" y2="-6.76479" gradientUnits="userSpaceOnUse">
<stop stop-color="#FFAB17"/>
<stop offset="0.28" stop-color="#FF8121"/>
<stop offset="0.6" stop-color="#FF572B"/>
<stop offset="0.85" stop-color="#FF3D31"/>
<stop offset="1" stop-color="#FF3333"/>
</linearGradient>
<clipPath id="clip0_2_1988">
<rect width="166" height="37" fill="white" transform="translate(0 0.5)"/>
</clipPath>
</defs>
</svg>
