<svg width="50" height="50" viewBox="0 0 50 50" fill="none" xmlns="http://www.w3.org/2000/svg">
<path d="M25 50C38.8071 50 50 38.8071 50 25C50 11.1929 38.8071 0 25 0C11.1929 0 0 11.1929 0 25C0 38.8071 11.1929 50 25 50Z" fill="#F3EEE4"/>
<path opacity="0.7" d="M32.2857 20.3493C31.75 20.6192 31.2143 20.7092 30.5893 20.7991C31.2143 20.4393 31.6607 19.8996 31.8393 19.1799C31.3036 19.5397 30.6786 19.7197 29.9643 19.8996C29.4286 19.3598 28.625 19 27.8214 19C26.3036 19 24.9643 20.3493 24.9643 21.9686C24.9643 22.2384 24.9643 22.4183 25.0536 22.5983C22.6429 22.5083 20.4107 21.3389 18.9821 19.5397C18.7143 19.9895 18.625 20.4393 18.625 21.069C18.625 22.0585 19.1607 22.9581 19.9643 23.4978C19.5179 23.4978 19.0714 23.3179 18.625 23.138C18.625 24.5773 19.6071 25.7467 20.9464 26.0166C20.6786 26.1066 20.4107 26.1066 20.1429 26.1066C19.9643 26.1066 19.7857 26.1066 19.6071 26.0166C19.9643 27.186 21.0357 28.0856 22.375 28.0856C21.3929 28.8952 20.1429 29.345 18.7143 29.345C18.4464 29.345 18.2679 29.345 18 29.345C19.3393 30.1546 20.8571 30.6943 22.4643 30.6943C27.8214 30.6943 30.7679 26.1965 30.7679 22.3284C30.7679 22.2384 30.7679 22.0585 30.7679 21.9686C31.3929 21.5188 31.9286 20.979 32.2857 20.3493Z" fill="#121212"/>
</svg>
